<?xml version="1.0" standalone="no"?>
<!DOCTYPE svg PUBLIC "-//W3C//DTD SVG 20010904//EN"
 "http://www.w3.org/TR/2001/REC-SVG-20010904/DTD/svg10.dtd">
<svg version="1.0" xmlns="http://www.w3.org/2000/svg"
 width="500.000000pt" height="500.000000pt" viewBox="0 0 500.000000 500.000000"
 preserveAspectRatio="xMidYMid meet">
<metadata>
Created by potrace 1.16, written by Peter Selinger 2001-2019
</metadata>
<g transform="translate(0.000000,500.000000) scale(0.100000,-0.100000)"
fill="#000000" stroke="none">
<path d="M2425 3244 c-105 -15 -162 -31 -254 -76 -93 -44 -115 -61 -195 -142
-154 -154 -219 -312 -220 -526 0 -213 66 -373 219 -526 81 -81 103 -98 196
-142 127 -61 191 -76 334 -76 135 0 207 18 335 81 81 39 109 60 185 137 153
155 219 313 219 526 0 215 -66 372 -221 527 -80 81 -104 98 -195 142 -57 27
-125 54 -153 60 -60 12 -208 21 -250 15z m-195 -600 l0 -86 27 17 c32 21 101
22 143 0 45 -23 64 -68 64 -150 0 -105 -36 -158 -116 -171 -30 -5 -63 4 -120
34 -5 2 -8 -3 -8 -12 0 -9 -8 -16 -20 -16 -19 0 -20 7 -20 235 l0 235 25 0
c25 0 25 -1 25 -86z m593 -152 l2 -232 -22 0 c-16 0 -23 6 -23 20 0 21 0 21
-28 0 -65 -48 -157 -29 -196 39 -43 74 -20 217 41 257 35 22 111 22 146 0 l27
-18 0 87 0 86 25 -3 26 -3 2 -233z"/>
<path d="M2274 2540 c-59 -24 -58 -211 1 -234 9 -3 29 -6 45 -6 42 0 59 9 75
41 18 34 20 132 3 162 -23 44 -71 59 -124 37z"/>
<path d="M2620 2525 c-25 -27 -38 -110 -26 -160 16 -61 96 -87 146 -47 41 33
40 172 -1 213 -28 28 -89 26 -119 -6z"/>
</g>
</svg>
